name analog
datacolumns 19
datarows 65
range 0.5235 0.5555
endheader
time	ground_force_vx	ground_force_vy	ground_force_vz	ground_force_px	ground_force_py	ground_force_pz	l_ground_force_vx	l_ground_force_vy	l_ground_force_vz	l_ground_force_px	l_ground_force_py	l_ground_force_pz	ground_torque_x	ground_torque_y	ground_torque_z	l_ground_torque_x	l_ground_torque_y	l_ground_torque_z
0.5235	-0.0	-0.0	-0.0	-0.0	-0.0	-0.0	14.697898864746094	-3.748274087905884	-536.9098510742188	-0.0	-0.0	-0.0	-0.0	-0.0	-0.0	146887.875	-10510.8212890625	3964.2119140625
0.524	-0.0	-0.0	-0.0	-0.0	-0.0	-0.0	15.907511711120604	-3.554205656051636	-519.718017578125	-0.0	-0.0	-0.0	-0.0	-0.0	-0.0	142075.046875	-9750.234375	4309.40625
0.5245	-0.0	-0.0	-0.0	-0.0	-0.0	-0.0	17.20989227294922	-2.8830454349517822	-504.3992614746094	-0.0	-0.0	-0.0	-0.0	-0.0	-0.0	137884.125	-8925.8720703125	4879.94482421875
0.525	-0.0	-0.0	-0.0	-0.0	-0.0	-0.0	18.83540916442871	-2.8262939453125	-489.4285278320313	-0.0	-0.0	-0.0	-0.0	-0.0	-0.0	133196.9375	-7979.20703125	5372.26416015625
0.5255	-0.0	-0.0	-0.0	-0.0	-0.0	-0.0	19.526668548583984	-2.904364585876465	-473.3280334472656	-0.0	-0.0	-0.0	-0.0	-0.0	-0.0	128826.921875	-7059.19140625	5781.083984375
0.526	-0.0	-0.0	-0.0	-0.0	-0.0	-0.0	19.477088928222656	-2.924712896347046	-457.8923950195313	-0.0	-0.0	-0.0	-0.0	-0.0	-0.0	124547.7421875	-5612.84423828125	5866.669921875
0.5265	-0.0	-0.0	-0.0	-0.0	-0.0	-0.0	18.866044998168945	-2.8555171489715576	-443.4619445800781	-0.0	-0.0	-0.0	-0.0	-0.0	-0.0	120836.96875	-4596.63916015625	5760.8271484375
0.527	-0.0	-0.0	-0.0	-0.0	-0.0	-0.0	17.968778610229492	-2.4435975551605225	-431.5121765136719	-0.0	-0.0	-0.0	-0.0	-0.0	-0.0	117050.296875	-3227.390625	5516.48974609375
0.5275	-0.0	-0.0	-0.0	-0.0	-0.0	-0.0	16.697675704956055	-2.502647638320923	-420.6511840820313	-0.0	-0.0	-0.0	-0.0	-0.0	-0.0	114229.421875	-2486.0751953125	5251.8203125
0.528	-0.0	-0.0	-0.0	-0.0	-0.0	-0.0	15.376924514770508	-2.2569808959960938	-412.4236450195313	-0.0	-0.0	-0.0	-0.0	-0.0	-0.0	111826.5078125	-1333.327392578125	4862.03759765625
0.5285	-0.0	-0.0	-0.0	-0.0	-0.0	-0.0	14.765620231628418	-1.835935950279236	-404.5851440429688	-0.0	-0.0	-0.0	-0.0	-0.0	-0.0	109706.6328125	-657.6063842773438	4713.9765625
0.529	-0.0	-0.0	-0.0	-0.0	-0.0	-0.0	13.661460876464844	-2.001131296157837	-399.1633605957031	-0.0	-0.0	-0.0	-0.0	-0.0	-0.0	108111.90625	144.90736389160156	4340.158203125
0.5295	-0.0	-0.0	-0.0	-0.0	-0.0	-0.0	12.884471893310549	-2.2963638305664062	-396.515869140625	-0.0	-0.0	-0.0	-0.0	-0.0	-0.0	107151.8828125	885.3826904296875	4223.94384765625
0.53	-0.0	-0.0	-0.0	-0.0	-0.0	-0.0	12.073691368103027	-2.345017194747925	-393.5293884277344	-0.0	-0.0	-0.0	-0.0	-0.0	-0.0	106631.15625	1419.3109130859375	3936.967529296875
0.5305	-0.0	-0.0	-0.0	-0.0	-0.0	-0.0	11.612227439880373	-2.071136236190796	-393.2146606445313	-0.0	-0.0	-0.0	-0.0	-0.0	-0.0	106117.3515625	1858.9097900390625	3717.19873046875
0.531	-0.0	-0.0	-0.0	-0.0	-0.0	-0.0	11.306244850158691	-2.3759641647338867	-392.5348205566406	-0.0	-0.0	-0.0	-0.0	-0.0	-0.0	106146.8125	2237.369873046875	3639.817626953125
0.5315	-0.0	-0.0	-0.0	-0.0	-0.0	-0.0	11.749876022338867	-2.319106101989746	-392.7056884765625	-0.0	-0.0	-0.0	-0.0	-0.0	-0.0	106058.390625	2907.481689453125	3650.689697265625
0.532	-0.0	-0.0	-0.0	-0.0	-0.0	-0.0	11.798534393310549	-2.76949143409729	-395.01507568359375	-0.0	-0.0	-0.0	-0.0	-0.0	-0.0	106776.7578125	3571.321044921875	3570.203369140625
0.5325	-0.0	-0.0	-0.0	-0.0	-0.0	-0.0	11.169232368469238	-2.714536666870117	-395.7797546386719	-0.0	-0.0	-0.0	-0.0	-0.0	-0.0	107109.1171875	4007.600830078125	3270.298828125
0.533	-0.0	-0.0	-0.0	-0.0	-0.0	-0.0	9.70973777770996	-2.882678985595703	-397.3963623046875	-0.0	-0.0	-0.0	-0.0	-0.0	-0.0	107851.953125	4614.59326171875	2872.85888671875
0.5335	-0.0	-0.0	-0.0	-0.0	-0.0	-0.0	7.838814735412598	-2.5533041954040527	-398.699462890625	-0.0	-0.0	-0.0	-0.0	-0.0	-0.0	108518.8203125	5098.60107421875	2380.74462890625
0.534	-0.0	-0.0	-0.0	-0.0	-0.0	-0.0	6.589190006256104	-2.1599459648132324	-401.3653564453125	-0.0	-0.0	-0.0	-0.0	-0.0	-0.0	109584.8359375	5638.4453125	1829.7978515625
0.5345	-0.0	-0.0	-0.0	-0.0	-0.0	-0.0	5.8953776359558105	-1.2922825813293457	-407.64984130859375	-0.0	-0.0	-0.0	-0.0	-0.0	-0.0	111113.828125	6341.66552734375	1387.1444091796875
0.535	-0.0	-0.0	-0.0	-0.0	-0.0	-0.0	4.628239154815674	-0.3936446905136108	-414.1539306640625	-0.0	-0.0	-0.0	-0.0	-0.0	-0.0	113281.3046875	7140.68701171875	1057.54248046875
0.5355	-0.0	-0.0	-0.0	-0.0	-0.0	-0.0	3.0973927974700928	0.5629130601882935	-422.8815612792969	-0.0	-0.0	-0.0	-0.0	-0.0	-0.0	115846.578125	7962.32763671875	537.364990234375
0.536	-0.0	-0.0	-0.0	-0.0	-0.0	-0.0	1.3233016729354858	1.2438313961029053	-433.6463012695313	-0.0	-0.0	-0.0	-0.0	-0.0	-0.0	118979.6953125	8341.9091796875	-213.77462768554688
0.5365	-0.0	-0.0	-0.0	-0.0	-0.0	-0.0	-0.2805589437484741	1.7926404476165771	-445.5458679199219	-0.0	-0.0	-0.0	-0.0	-0.0	-0.0	122406.65625	8881.6611328125	-791.8713989257812
0.537	-0.0	-0.0	-0.0	-0.0	-0.0	-0.0	-1.740458369255066	2.465972900390625	-458.59674072265625	-0.0	-0.0	-0.0	-0.0	-0.0	-0.0	125877.1171875	9126.5146484375	-1321.842529296875
0.5375	-0.0	-0.0	-0.0	-0.0	-0.0	-0.0	-2.531726837158203	1.8071402311325075	-471.7857666015625	-0.0	-0.0	-0.0	-0.0	-0.0	-0.0	130132.09375	9797.7880859375	-1642.1453857421875
0.538	-0.0	-0.0	-0.0	-0.0	-0.0	-0.0	-3.104877471923828	1.854755401611328	-488.543212890625	-0.0	-0.0	-0.0	-0.0	-0.0	-0.0	134076.8125	9872.9921875	-1795.2772216796875
0.5385	-0.0	-0.0	-0.0	-0.0	-0.0	-0.0	-3.719207763671875	1.9971619844436648	-503.930419921875	-0.0	-0.0	-0.0	-0.0	-0.0	-0.0	138766.765625	10330.8134765625	-2270.326171875
0.539	-0.0	-0.0	-0.0	-0.0	-0.0	-0.0	-5.028460502624512	2.2684326171875	-520.397705078125	-0.0	-0.0	-0.0	-0.0	-0.0	-0.0	143302.390625	10661.3349609375	-2896.33447265625
0.5395	-0.0	-0.0	-0.0	-0.0	-0.0	-0.0	-6.114678382873535	2.4793450832366943	-534.92529296875	-0.0	-0.0	-0.0	-0.0	-0.0	-0.0	148114.828125	11467.5498046875	-3239.228271484375
0.54	-0.0	-0.0	-0.0	-0.0	-0.0	-0.0	-7.061868667602539	3.2330617904663086	-551.3104248046875	-0.0	-0.0	-0.0	-0.0	-0.0	-0.0	152163.40625	11465.107421875	-3814.987060546875
0.5405	-0.0	-0.0	-0.0	-0.0	-0.0	-0.0	-8.42752456665039	2.961810350418091	-564.650146484375	-0.0	-0.0	-0.0	-0.0	-0.0	-0.0	156228.265625	12001.9326171875	-4178.13330078125
0.541	-0.0	-0.0	-0.0	-0.0	-0.0	-0.0	-9.367908477783203	2.9086947441101074	-577.68310546875	-0.0	-0.0	-0.0	-0.0	-0.0	-0.0	159699.140625	12310.2724609375	-4665.1669921875
0.5415	-0.0	-0.0	-0.0	-0.0	-0.0	-0.0	-11.053223609924316	2.908820629119873	-589.9489135742188	-0.0	-0.0	-0.0	-0.0	-0.0	-0.0	163505.609375	12929.712890625	-5198.330078125
0.542	-0.0	-0.0	-0.0	-0.0	-0.0	-0.0	-12.117521286010742	3.0029373168945312	-601.9820556640625	-0.0	-0.0	-0.0	-0.0	-0.0	-0.0	166743.296875	13308.046875	-5527.26123046875
0.5425	-0.0	-0.0	-0.0	-0.0	-0.0	-0.0	-13.619869232177734	3.1022636890411377	-611.5499267578125	-0.0	-0.0	-0.0	-0.0	-0.0	-0.0	169671.625	13654.4072265625	-6093.72216796875
0.543	-0.0	-0.0	-0.0	-0.0	-0.0	-0.0	-14.89801025390625	3.0497872829437256	-621.5111083984375	-0.0	-0.0	-0.0	-0.0	-0.0	-0.0	172481.140625	14133.5859375	-6397.9052734375
0.5435	-0.0	-0.0	-0.0	-0.0	-0.0	-0.0	-16.025415420532227	3.0340373516082764	-630.4242553710938	-0.0	-0.0	-0.0	-0.0	-0.0	-0.0	174577.59375	14610.974609375	-6730.40966796875
0.544	-0.0	-0.0	-0.0	-0.0	-0.0	-0.0	-17.157854080200195	2.919715642929077	-637.755615234375	-0.0	-0.0	-0.0	-0.0	-0.0	-0.0	176957.84375	15173.11328125	-7088.904296875
0.5445	-0.0	-0.0	-0.0	-0.0	-0.0	-0.0	-18.01326560974121	2.16635799407959	-643.6707763671875	-0.0	-0.0	-0.0	-0.0	-0.0	-0.0	178914.390625	15801.431640625	-7412.607421875
0.545	-0.0	-0.0	-0.0	-0.0	-0.0	-0.0	-18.853456497192383	1.8081912994384768	-649.917236328125	-0.0	-0.0	-0.0	-0.0	-0.0	-0.0	180763.109375	16307.708984375	-7758.49267578125
0.5455	-0.0	-0.0	-0.0	-0.0	-0.0	-0.0	-19.698495864868164	1.5432887077331543	-655.1737060546875	-0.0	-0.0	-0.0	-0.0	-0.0	-0.0	182386.40625	16880.958984375	-8130.6650390625
0.546	-0.0	-0.0	-0.0	-0.0	-0.0	-0.0	-19.95992660522461	1.6735843420028689	-658.1329345703125	-0.0	-0.0	-0.0	-0.0	-0.0	-0.0	183739.875	17479.451171875	-8244.78125
0.5465	-0.0	-0.0	-0.0	-0.0	-0.0	-0.0	-20.18390846252441	1.8415865898132324	-663.239501953125	-0.0	-0.0	-0.0	-0.0	-0.0	-0.0	185061.046875	17936.494140625	-8525.9921875
0.547	-0.0	-0.0	-0.0	-0.0	-0.0	-0.0	-20.62311553955078	1.85901951789856	-664.9845581054688	-0.0	-0.0	-0.0	-0.0	-0.0	-0.0	186214.78125	18308.4140625	-8738.2880859375
0.5475	-0.0	-0.0	-0.0	-0.0	-0.0	-0.0	-21.55259323120117	2.123830795288086	-666.9120483398438	-0.0	-0.0	-0.0	-0.0	-0.0	-0.0	186792.390625	18961.140625	-9018.515625
0.548	-0.0	-0.0	-0.0	-0.0	-0.0	-0.0	-22.270408630371094	1.93909215927124	-667.927001953125	-0.0	-0.0	-0.0	-0.0	-0.0	-0.0	187362.890625	19439.96875	-9449.849609375
0.5485	-0.0	-0.0	-0.0	-0.0	-0.0	-0.0	-23.72435188293457	2.8224551677703857	-667.410888671875	-0.0	-0.0	-0.0	-0.0	-0.0	-0.0	187841.734375	20065.234375	-9778.2060546875
0.549	-0.0	-0.0	-0.0	-0.0	-0.0	-0.0	-25.190155029296875	3.4445457458496094	-668.4434814453125	-0.0	-0.0	-0.0	-0.0	-0.0	-0.0	187937.3125	20535.720703125	-10177.59375
0.5495	-0.0	-0.0	-0.0	-0.0	-0.0	-0.0	-26.435813903808597	4.363006591796875	-666.879638671875	-0.0	-0.0	-0.0	-0.0	-0.0	-0.0	187985.828125	21255.2109375	-10624.384765625
0.55	-0.0	-0.0	-0.0	-0.0	-0.0	-0.0	-27.142072677612305	5.093854904174805	-667.5913696289062	-0.0	-0.0	-0.0	-0.0	-0.0	-0.0	187885.0	21930.873046875	-10918.970703125
0.5505	-0.0	-0.0	-0.0	-0.0	-0.0	-0.0	-27.81905174255371	5.256777286529541	-666.000244140625	-0.0	-0.0	-0.0	-0.0	-0.0	-0.0	187696.140625	22341.4609375	-11021.611328125
0.551	-0.0	-0.0	-0.0	-0.0	-0.0	-0.0	-28.390613555908203	5.744058132171631	-663.5440063476562	-0.0	-0.0	-0.0	-0.0	-0.0	-0.0	187180.859375	22619.64453125	-11071.23046875
0.5515	-0.0	-0.0	-0.0	-0.0	-0.0	-0.0	-28.56487274169922	6.590447425842285	-661.3049926757812	-0.0	-0.0	-0.0	-0.0	-0.0	-0.0	186898.09375	23225.380859375	-11068.9990234375
0.552	-0.0	-0.0	-0.0	-0.0	-0.0	-0.0	-28.61067008972168	6.926075458526611	-659.5701293945312	-0.0	-0.0	-0.0	-0.0	-0.0	-0.0	186484.484375	23364.958984375	-11010.5615234375
0.5525	-0.0	-0.0	-0.0	-0.0	-0.0	-0.0	-27.140012741088867	6.70425271987915	-657.6217041015625	-0.0	-0.0	-0.0	-0.0	-0.0	-0.0	185767.1875	23710.3515625	-10605.8271484375
0.553	-0.0	-0.0	-0.0	-0.0	-0.0	-0.0	-26.083574295043945	6.011058330535889	-654.6490478515625	-0.0	-0.0	-0.0	-0.0	-0.0	-0.0	185277.34375	23939.072265625	-10191.7919921875
0.5535	-0.0	-0.0	-0.0	-0.0	-0.0	-0.0	-24.25870513916016	5.1680450439453125	-651.8273315429688	-0.0	-0.0	-0.0	-0.0	-0.0	-0.0	184333.59375	24155.7421875	-9641.5087890625
0.554	-0.0	-0.0	-0.0	-0.0	-0.0	-0.0	-22.575740814208984	4.189533710479736	-650.2904052734375	-0.0	-0.0	-0.0	-0.0	-0.0	-0.0	183660.375	24077.078125	-9076.9697265625
0.5545	-0.0	-0.0	-0.0	-0.0	-0.0	-0.0	-22.259899139404297	3.537186861038208	-647.5144653320312	-0.0	-0.0	-0.0	-0.0	-0.0	-0.0	182902.1875	24413.02734375	-8810.685546875
0.555	-0.0	-0.0	-0.0	-0.0	-0.0	-0.0	-21.604143142700195	2.514114618301392	-645.5894165039062	-0.0	-0.0	-0.0	-0.0	-0.0	-0.0	181997.796875	24594.900390625	-8647.64453125
0.5555	-0.0	-0.0	-0.0	-0.0	-0.0	-0.0	-21.424598693847656	1.852873682975769	-642.958984375	-0.0	-0.0	-0.0	-0.0	-0.0	-0.0	181310.671875	24779.865234375	-8481.6376953125
